REM DIRINDEX 1\2,1\3,1\4,1\5,1\6
REM DIRNAME folder01,folder02,folder03,folder04,folder05,folder06
TITLE ""
FILE "Disc1Track39.mp3" MP3
  TRACK 01 AUDIO
    TITLE "2:cjc030_00925"
    INDEX 01 00:00:00
  TRACK 02 AUDIO
    TITLE "0:"
    INDEX 01 00:04:44
  TRACK 03 AUDIO
    TITLE "3:cjc030_00926"
    INDEX 01 00:05:05
  TRACK 04 AUDIO
    TITLE "0:"
    INDEX 01 00:06:26
  TRACK 05 AUDIO
    TITLE "4:cjc030_00927"
    INDEX 01 00:06:35
  TRACK 06 AUDIO
    TITLE "0:"
    INDEX 01 00:07:62
  TRACK 07 AUDIO
    TITLE "5:cjc030_00928"
    INDEX 01 00:07:68
  TRACK 08 AUDIO
    TITLE "0:"
    INDEX 01 00:09:16
  TRACK 09 AUDIO
    TITLE "3:cjc030_00929"
    INDEX 01 00:09:63
  TRACK 10 AUDIO
    TITLE "0:"
    INDEX 01 00:11:09
  TRACK 11 AUDIO
    TITLE "4:cjc030_00930"
    INDEX 01 00:11:19
  TRACK 12 AUDIO
    TITLE "0:"
    INDEX 01 00:12:44
  TRACK 13 AUDIO
    TITLE "5:cjc030_00931"
    INDEX 01 00:12:52
  TRACK 14 AUDIO
    TITLE "0:"
    INDEX 01 00:13:73
  TRACK 15 AUDIO
    TITLE "6:cjc030_00932"
    INDEX 01 00:14:11
  TRACK 16 AUDIO
    TITLE "0:"
    INDEX 01 00:17:51
  TRACK 17 AUDIO
    TITLE "3:cjc030_00933"
    INDEX 01 00:18:25
  TRACK 18 AUDIO
    TITLE "0:"
    INDEX 01 00:19:50
  TRACK 19 AUDIO
    TITLE "4:cjc030_00934"
    INDEX 01 00:19:58
  TRACK 20 AUDIO
    TITLE "0:"
    INDEX 01 00:20:55
  TRACK 21 AUDIO
    TITLE "5:cjc030_00935"
    INDEX 01 00:20:63
  TRACK 22 AUDIO
    TITLE "0:"
    INDEX 01 00:22:13
  TRACK 23 AUDIO
    TITLE "3:cjc030_00936"
    INDEX 01 00:22:62
  TRACK 24 AUDIO
    TITLE "0:"
    INDEX 01 00:24:02
  TRACK 25 AUDIO
    TITLE "4:cjc030_00937"
    INDEX 01 00:24:10
  TRACK 26 AUDIO
    TITLE "0:"
    INDEX 01 00:26:03
  TRACK 27 AUDIO
    TITLE "5:cjc030_00938"
    INDEX 01 00:26:13
  TRACK 28 AUDIO
    TITLE "0:"
    INDEX 01 00:27:24
  TRACK 29 AUDIO
    TITLE "6:cjc030_00939"
    INDEX 01 00:27:38
  TRACK 30 AUDIO
    TITLE "0:"
    INDEX 01 00:30:12
  TRACK 31 AUDIO
    TITLE "3:cjc030_00940"
    INDEX 01 00:30:61
  TRACK 32 AUDIO
    TITLE "0:"
    INDEX 01 00:32:07
  TRACK 33 AUDIO
    TITLE "4:cjc030_00941"
    INDEX 01 00:32:17
  TRACK 34 AUDIO
    TITLE "0:"
    INDEX 01 00:33:22
  TRACK 35 AUDIO
    TITLE "5:cjc030_00942"
    INDEX 01 00:33:32
  TRACK 36 AUDIO
    TITLE "0:"
    INDEX 01 00:34:55
  TRACK 37 AUDIO
    TITLE "6:cjc030_00943"
    INDEX 01 00:34:69
  TRACK 38 AUDIO
    TITLE "0:"
    INDEX 01 00:36:52
  TRACK 39 AUDIO
    TITLE "3:cjc030_00944"
    INDEX 01 00:37:24
  TRACK 40 AUDIO
    TITLE "0:"
    INDEX 01 00:38:47
  TRACK 41 AUDIO
    TITLE "4:cjc030_00945"
    INDEX 01 00:38:55
  TRACK 42 AUDIO
    TITLE "0:"
    INDEX 01 00:40:40
  TRACK 43 AUDIO
    TITLE "5:cjc030_00946"
    INDEX 01 00:40:48
  TRACK 44 AUDIO
    TITLE "0:"
    INDEX 01 00:41:69
  TRACK 45 AUDIO
    TITLE "6:cjc030_00947"
    INDEX 01 00:42:10
  TRACK 46 AUDIO
    TITLE "0:"
    INDEX 01 00:47:36
  TRACK 47 AUDIO
    TITLE "3:cjc030_00948"
    INDEX 01 00:48:10
  TRACK 48 AUDIO
    TITLE "0:"
    INDEX 01 00:49:31
  TRACK 49 AUDIO
    TITLE "4:cjc030_00949"
    INDEX 01 00:49:39
  TRACK 50 AUDIO
    TITLE "0:"
    INDEX 01 00:53:17
  TRACK 51 AUDIO
    TITLE "5:cjc030_00950"
    INDEX 01 00:53:25
  TRACK 52 AUDIO
    TITLE "0:"
    INDEX 01 00:54:46
  TRACK 53 AUDIO
    TITLE "6:cjc030_00951"
    INDEX 01 00:54:62
  TRACK 54 AUDIO
    TITLE "0:"
    INDEX 01 00:56:35
  TRACK 55 AUDIO
    TITLE "3:cjc030_00952"
    INDEX 01 00:57:07
  TRACK 56 AUDIO
    TITLE "0:"
    INDEX 01 00:58:34
  TRACK 57 AUDIO
    TITLE "4:cjc030_00953"
    INDEX 01 00:58:42
  TRACK 58 AUDIO
    TITLE "0:"
    INDEX 01 00:59:69
  TRACK 59 AUDIO
    TITLE "5:cjc030_00954"
    INDEX 01 01:00:04
  TRACK 60 AUDIO
    TITLE "0:"
    INDEX 01 01:01:31
  TRACK 61 AUDIO
    TITLE "6:cjc030_00955"
    INDEX 01 01:01:44
  TRACK 62 AUDIO
    TITLE "0:"
    INDEX 01 01:04:54
  TRACK 63 AUDIO
    TITLE "3:cjc030_00956"
    INDEX 01 01:05:26
  TRACK 64 AUDIO
    TITLE "0:"
    INDEX 01 01:06:47
  TRACK 65 AUDIO
    TITLE "4:cjc030_00957"
    INDEX 01 01:06:57
  TRACK 66 AUDIO
    TITLE "0:"
    INDEX 01 01:07:59
  TRACK 67 AUDIO
    TITLE "5:cjc030_00958"
    INDEX 01 01:07:66
  TRACK 68 AUDIO
    TITLE "0:"
    INDEX 01 01:09:14
